<svg version="1.2" xmlns="http://www.w3.org/2000/svg" viewBox="0 0 595 295" width="595" height="295"><style>.a{fill:#fff}</style><path class="a" d="m106.4 172.9l11.1 35.4q-17.4 8.7-39.3 8.7-24.3 0-38.4-13.5-14.1-13.8-14.1-44.1v-56.1h-25.2v-37.5h25.2c0 0 0-2.2 0-23.1 0-42.4 45.4-42.3 46.8-42.3 0 20.2 0 65.4 0 65.4h36.9v37.5h-36.9v56.1q0 9 4.5 13.5 4.5 4.2 12.3 4.2 8.7 0 17.1-4.2zm43.9 44.1q-12 0-19.8-7.2-7.5-7.2-7.5-18.3 0-11.1 7.5-18.3 7.8-7.2 19.8-7.2 11.7 0 19.2 7.2 7.8 7.2 7.8 18.3 0 11.1-7.8 18.3-7.5 7.2-19.2 7.2zm217.4-154.5q28.2 0 44.4 16.5 16.2 16.5 16.2 45.3v89.7h-47.1v-83.7q0-13.2-6.3-20.4-6-7.5-17.1-7.5-12.3 0-19.5 8.4-7.2 8.4-7.2 22.2v81h-46.8v-83.7q0-13.2-6-20.4-6-7.5-17.1-7.5-12.3 0-19.8 8.4-7.2 8.4-7.2 22.2v81h-47.1v-148.2h40.8l2.7 16.5q7.8-9.6 18.6-14.7 11.1-5.1 23.7-5.1 14.4 0 25.8 6.3 11.4 6 18 16.8 18-23.1 51-23.1zm157.5 50.1l18.9-46.8h51c0 0-69.6 162.2-88.3 202.8-15.1 32.7-60.6 25.9-60.6 25.9l35.2-82.6-57.6-146.1h50.7l17.1 46.8 16.2 48.3zm-747.2-85.6"/></svg>